<mxfile host="app.diagrams.net" modified="2021-04-12T14:12:11.727Z" agent="5.0 (Windows NT 10.0; Win64; x64) AppleWebKit/537.36 (KHTML, like Gecko) Chrome/89.0.4389.114 Safari/537.36" etag="uiKHVxLXQGenILhs6wBe" version="14.5.10" type="github">
  <diagram id="nAgWO_YRpvdft5DyKSbY" name="Page-1">
    <mxGraphModel dx="868" dy="450" grid="1" gridSize="10" guides="1" tooltips="1" connect="1" arrows="1" fold="1" page="1" pageScale="1" pageWidth="827" pageHeight="1169" math="0" shadow="0">
      <root>
        <mxCell id="0" />
        <mxCell id="1" parent="0" />
        <mxCell id="JhN9bhiUE9eFPAfzxtot-3" value="" style="rounded=1;whiteSpace=wrap;html=1;fillColor=#dae8fc;strokeColor=#6c8ebf;" vertex="1" parent="1">
          <mxGeometry x="320" y="10" width="120" height="60" as="geometry" />
        </mxCell>
        <mxCell id="JhN9bhiUE9eFPAfzxtot-4" value="Inicio" style="text;html=1;strokeColor=none;fillColor=none;align=center;verticalAlign=middle;whiteSpace=wrap;rounded=0;" vertex="1" parent="1">
          <mxGeometry x="360" y="30" width="40" height="20" as="geometry" />
        </mxCell>
        <mxCell id="JhN9bhiUE9eFPAfzxtot-6" value="" style="endArrow=classic;html=1;" edge="1" parent="1" target="JhN9bhiUE9eFPAfzxtot-7">
          <mxGeometry width="50" height="50" relative="1" as="geometry">
            <mxPoint x="380" y="70" as="sourcePoint" />
            <mxPoint x="380" y="120" as="targetPoint" />
          </mxGeometry>
        </mxCell>
        <mxCell id="JhN9bhiUE9eFPAfzxtot-7" value="" style="shape=parallelogram;perimeter=parallelogramPerimeter;whiteSpace=wrap;html=1;fixedSize=1;fillColor=#dae8fc;strokeColor=#6c8ebf;" vertex="1" parent="1">
          <mxGeometry x="250" y="100" width="260" height="60" as="geometry" />
        </mxCell>
        <mxCell id="JhN9bhiUE9eFPAfzxtot-10" value="" style="edgeStyle=orthogonalEdgeStyle;rounded=0;orthogonalLoop=1;jettySize=auto;html=1;" edge="1" parent="1" source="JhN9bhiUE9eFPAfzxtot-8" target="JhN9bhiUE9eFPAfzxtot-9">
          <mxGeometry relative="1" as="geometry" />
        </mxCell>
        <mxCell id="JhN9bhiUE9eFPAfzxtot-8" value="Digite seu nome (Var nome)" style="text;html=1;align=center;verticalAlign=middle;whiteSpace=wrap;rounded=0;" vertex="1" parent="1">
          <mxGeometry x="270" y="100" width="220" height="60" as="geometry" />
        </mxCell>
        <mxCell id="JhN9bhiUE9eFPAfzxtot-9" value="" style="shape=parallelogram;perimeter=parallelogramPerimeter;whiteSpace=wrap;html=1;fixedSize=1;fillColor=#dae8fc;strokeColor=#6c8ebf;" vertex="1" parent="1">
          <mxGeometry x="270" y="190" width="220" height="60" as="geometry" />
        </mxCell>
        <mxCell id="JhN9bhiUE9eFPAfzxtot-13" value="" style="edgeStyle=orthogonalEdgeStyle;rounded=0;orthogonalLoop=1;jettySize=auto;html=1;" edge="1" parent="1" source="JhN9bhiUE9eFPAfzxtot-11" target="JhN9bhiUE9eFPAfzxtot-12">
          <mxGeometry relative="1" as="geometry" />
        </mxCell>
        <mxCell id="JhN9bhiUE9eFPAfzxtot-11" value="Imprima&amp;nbsp; Ola &#39;nome&#39;" style="text;html=1;strokeColor=none;fillColor=none;align=center;verticalAlign=middle;whiteSpace=wrap;rounded=0;" vertex="1" parent="1">
          <mxGeometry x="290" y="190" width="180" height="60" as="geometry" />
        </mxCell>
        <mxCell id="JhN9bhiUE9eFPAfzxtot-12" value="fim" style="ellipse;whiteSpace=wrap;html=1;fillColor=#dae8fc;strokeColor=#6c8ebf;" vertex="1" parent="1">
          <mxGeometry x="320" y="290" width="120" height="60" as="geometry" />
        </mxCell>
      </root>
    </mxGraphModel>
  </diagram>
</mxfile>
